<svg width="12" height="14" viewBox="0 0 12 14" fill="none" xmlns="http://www.w3.org/2000/svg">
<g clip-path="url(#clip0_153_34)">
<path d="M5.57143 0H8.89554C9.23571 0 9.5625 0.136607 9.80357 0.377679L11.6223 2.19643C11.8634 2.4375 12 2.76429 12 3.10446V9C12 9.70982 11.4241 10.2857 10.7143 10.2857H5.57143C4.86161 10.2857 4.28571 9.70982 4.28571 9V1.28571C4.28571 0.575893 4.86161 0 5.57143 0ZM1.28571 3.42857H3.42857V5.14286H1.71429V12H6.85714V11.1429H8.57143V12.4286C8.57143 13.1384 7.99554 13.7143 7.28571 13.7143H1.28571C0.575893 13.7143 0 13.1384 0 12.4286V4.71429C0 4.00446 0.575893 3.42857 1.28571 3.42857Z" fill="#4B9CD3"/>
</g>
<defs>
<clipPath id="clip0_153_34">
<rect width="12" height="13.7143" fill="white"/>
</clipPath>
</defs>
</svg>
