<svg width="13" height="15" viewBox="0 0 13 15" fill="none" xmlns="http://www.w3.org/2000/svg">
<path d="M10.2143 6.4999C11.7522 6.4999 13 5.25213 13 3.71418C13 2.17623 11.7522 0.928467 10.2143 0.928467C8.67634 0.928467 7.42857 2.17623 7.42857 3.71418C7.42857 3.83025 7.43438 3.94632 7.44888 4.05949L4.7183 5.42333C4.2192 4.93873 3.53728 4.64275 2.78571 4.64275C1.24777 4.64275 0 5.89052 0 7.42847C0 8.96641 1.24777 10.2142 2.78571 10.2142C3.53728 10.2142 4.2192 9.9182 4.7183 9.4336L7.44888 10.7974C7.43438 10.9106 7.42857 11.0238 7.42857 11.1428C7.42857 12.6807 8.67634 13.9285 10.2143 13.9285C11.7522 13.9285 13 12.6807 13 11.1428C13 9.60481 11.7522 8.35704 10.2143 8.35704C9.46272 8.35704 8.7808 8.65302 8.2817 9.13762L5.55112 7.77378C5.56562 7.66061 5.57143 7.54744 5.57143 7.42847C5.57143 7.30949 5.56562 7.19632 5.55112 7.08315L8.2817 5.71932C8.7808 6.20391 9.46272 6.4999 10.2143 6.4999Z" fill="#4B9CD3"/>
</svg>
